<?xml version="1.0" encoding="UTF-8"?>
<svg width="499px" height="513px" viewBox="0 0 499 513" version="1.1" xmlns="http://www.w3.org/2000/svg" xmlns:xlink="http://www.w3.org/1999/xlink">
    <title>Untitled</title>
    <g id="Page-1" stroke="none" stroke-width="1" fill="none" fill-rule="evenodd">
        <g id="approved" transform="translate(0.211268, 1.000000)">
            <path d="M0.515090543,175.369787 L0.515090543,495.251316 C0.515090543,498.637521 3.28524748,501.440644 6.69823742,501.440644 L357.343034,501.440644 C360.754994,501.440644 363.526181,498.637521 363.526181,495.251316 L363.526181,458.057658 L48.4906237,43.3829859 L6.69823742,43.3829859 C3.28627767,43.3829859 0.515090543,46.1562334 0.515090543,49.5723139 L0.515090543,175.369787 Z" id="Path" fill="#CECECE"></path>
            <path d="M48.4906237,43.3829859 L48.4906237,451.86833 C48.4906237,455.254535 51.2607807,458.057658 54.6737706,458.057658 L153.045763,458.057658 L363.526181,458.057658 L405.348443,458.057658 C408.731557,458.057658 411.53159,455.254535 411.53159,451.86833 C411.53159,239.597457 411.53159,308.144676 411.53159,76.8978672 L411.502744,73.073835 C411.502744,72.4897223 411.444024,72.0807404 411.240048,71.6727887 L361.222696,71.6727887 C347.544982,71.6727887 336.374728,60.4912032 336.374728,46.8289416 L336.433449,0.32244668 C335.935871,0.0875653924 335.469199,-2.92795075e-14 334.827396,-2.92795075e-14 L330.190551,-2.92795075e-14 L54.6737706,-2.92795075e-14 C51.2618109,-2.92795075e-14 48.4906237,2.77324748 48.4906237,6.18932797 L48.4906237,43.3829859 Z" id="Path" fill="#F9F7F7"></path>
            <path d="M268.157167,0 C315.578463,48.9294809 346.464322,128.688161 346.464322,218.781618 C346.464322,238.312821 345.005586,257.347477 342.264274,275.68161 C341.38965,281.578366 340.36874,287.388588 339.201545,293.110213 C337.830374,300.028909 336.256258,306.831195 334.50598,313.51707 C318.115799,376.051123 285.947364,427.52 244.970881,458.057658 L363.524121,458.057658 L405.346382,458.057658 C408.729497,458.057658 411.529529,455.254535 411.529529,451.86833 L411.529529,382.590712 L411.529529,290.891203 L411.529529,76.8978672 L411.500684,73.073835 C411.500684,72.4897223 411.441964,72.0807404 411.237988,71.6727887 L336.431388,0.32244668 C335.935871,0.0875653924 335.469199,0 334.827396,0 L330.190551,0 L268.157167,0 Z" id="Path" fill="#E2E2E2"></path>
            <path d="M336.431388,0.321416499 L336.372668,46.8279115 C336.372668,60.4912032 347.542922,71.6717586 361.220636,71.6717586 L411.237988,71.6717586 C410.830036,70.8548249 409.866817,70.1244266 408.001159,68.3143984 L340.427461,3.79518712 C338.326922,1.7811831 337.364732,0.788088531 336.431388,0.321416499 Z" id="Path" fill="#CECECE"></path>
            <path d="M360.171911,244.05402 L109.036427,244.05402 C104.769416,244.05402 101.310068,240.594672 101.310068,236.327662 C101.310068,232.060652 104.769416,228.601304 109.036427,228.601304 L360.171911,228.601304 C364.438922,228.601304 367.89827,232.060652 367.89827,236.327662 C367.89827,240.594672 364.438922,244.05402 360.171911,244.05402 Z" id="Path" fill="#595959" fill-rule="nonzero"></path>
            <path d="M360.171911,195.796217 L109.036427,195.796217 C104.769416,195.796217 101.310068,192.336869 101.310068,188.069859 C101.310068,183.802849 104.769416,180.343501 109.036427,180.343501 L360.171911,180.343501 C364.438922,180.343501 367.89827,183.802849 367.89827,188.069859 C367.89827,192.336869 364.438922,195.796217 360.171911,195.796217 Z" id="Path" fill="#595959" fill-rule="nonzero"></path>
            <path d="M133.678358,136.793626 C122.345336,136.793626 112.881062,131.221376 107.028604,121.099847 C99.4423501,107.978431 99.4578028,88.8850543 107.06466,75.6997666 C112.936692,65.5215775 122.398905,59.9163622 133.709264,59.9163622 L147.008901,59.9163622 C151.275911,59.9163622 154.73526,63.3757103 154.73526,67.6427203 C154.73526,71.9097304 151.275911,75.3690785 147.008901,75.3690785 L133.709264,75.3690785 C127.993819,75.3690785 123.532105,78.0784547 120.448773,83.422004 C115.588378,91.8468249 115.569835,104.999147 120.405505,113.365247 C123.465143,118.657288 127.933038,121.340909 133.684539,121.340909 L133.701022,121.340909 L149.806873,121.340909 C154.073883,121.340909 157.533231,124.800258 157.533231,129.067268 C157.533231,133.334278 154.073883,136.793626 149.806873,136.793626 L133.708233,136.793626 C133.699992,136.793626 133.68763,136.793626 133.678358,136.793626 Z" id="Path" fill="#595959" fill-rule="nonzero"></path>
            <path d="M194.757795,136.810109 C194.72792,136.810109 194.697014,136.810109 194.667139,136.810109 C190.840016,136.774052 187.44969,134.338704 185.817883,130.453891 C185.754012,130.302455 185.695292,130.147928 185.641722,129.99237 L164.906237,70.1738753 C163.509312,66.1417465 165.643847,61.7408129 169.675976,60.3428571 C173.706044,58.9469618 178.109038,61.0804668 179.506994,65.1125956 L194.750584,109.088966 L209.994173,65.1125956 C211.391099,61.081497 215.792032,58.947992 219.825191,60.3428571 C223.85732,61.7408129 225.991855,66.1417465 224.59493,70.1738753 L203.859445,129.99237 C203.789392,130.194286 203.711099,130.393111 203.624563,130.588845 C201.89798,134.490141 198.588008,136.810109 194.757795,136.810109 Z" id="Path" fill="#595959" fill-rule="nonzero"></path>
            <path d="M352.271453,292.340668 L109.036427,292.340668 C104.769416,292.340668 101.310068,288.88132 101.310068,284.61431 C101.310068,280.3473 104.769416,276.887952 109.036427,276.887952 L352.271453,276.887952 C356.538463,276.887952 359.997811,280.3473 359.997811,284.61431 C359.997811,288.88132 356.538463,292.340668 352.271453,292.340668 Z" id="Path" fill="#595959" fill-rule="nonzero"></path>
            <path d="M282.242833,340.599501 L109.036427,340.599501 C104.769416,340.599501 101.310068,337.140153 101.310068,332.873143 C101.310068,328.606133 104.769416,325.146785 109.036427,325.146785 L282.242833,325.146785 C286.509843,325.146785 289.969191,328.606133 289.969191,332.873143 C289.969191,337.140153 286.509843,340.599501 282.242833,340.599501 Z" id="Path" fill="#595959" fill-rule="nonzero"></path>
            <path d="M208.95369,388.857304 L109.036427,388.857304 C104.769416,388.857304 101.310068,385.397956 101.310068,381.130946 C101.310068,376.863936 104.769416,373.404588 109.036427,373.404588 L208.95369,373.404588 C213.2207,373.404588 216.680048,376.863936 216.680048,381.130946 C216.680048,385.397956 213.2207,388.857304 208.95369,388.857304 Z" id="Path" fill="#595959" fill-rule="nonzero"></path>
            <path d="M23.0008531,156.422696 L23.0008531,476.27435 C23.0008531,479.690431 25.8008853,482.463678 29.184,482.463678 L299.91765,482.463678 C298.022117,480.77006 296.126584,479.018753 294.28874,477.179879 C288.36829,471.224402 283.177207,464.801223 278.773183,458.057658 L244.971911,458.057658 L153.045763,458.057658 L54.6737706,458.057658 C51.2618109,458.057658 48.4906237,455.254535 48.4906237,451.86833 L48.4906237,43.3829859 L23.0008531,43.3829859 L23.0008531,156.422696 Z" id="Path" fill="#B5ADB6"></path>
            <path d="M294.778656,308.814197 C341.179042,262.395268 416.365779,262.395268 462.766165,308.814197 C509.137706,355.261972 509.137706,430.524942 462.766165,476.972716 C416.365779,523.391646 341.179042,523.391646 294.778656,476.972716 C248.407115,430.524942 248.407115,355.263002 294.778656,308.814197 L294.778656,308.814197 Z" id="Path" fill="#FFC600"></path>
        </g>
        <g id="Markdown-mark" transform="translate(306.000000, 351.000000)">
            <rect id="Rectangle" stroke="#000000" stroke-width="10" x="0" y="0" width="144" height="86"></rect>
            <path d="M18,68 L18,18 L32.5806452,18 L47.1612903,36.3823529 L61.7419355,18 L76.3225806,18 L76.3225806,68 L61.7419355,68 L61.7419355,39.3235294 L47.1612903,57.7058824 L32.5806452,39.3235294 L32.5806452,68 L18,68 Z M109.129032,68 L87.2580645,43.7352941 L101.83871,43.7352941 L101.83871,18 L116.419355,18 L116.419355,43.7352941 L131,43.7352941 L109.129032,68 Z" id="Shape" fill="#000000" fill-rule="nonzero"></path>
        </g>
    </g>
</svg>